# xmcd
#
# Track frame offsets: 
#        150
#        11074
#        22487
#        32699
#        40609
#        53224
#        65767
#        75157
#        84356
#        96796
#        107468
#        123215
#        133174
#        145490
#        155977
#        165294
#        178407
#        187169
#        197651
#        206804
#        217622
#        228118
#        240175
#        251109
#
# Disc length: 3510 seconds
#
# Revision: 2
# Processed by: cddbd v1.5.2PL0 Copyright (c) Steve Scherf et al.
# Submitted via: ExactAudioCopy v1.0b1
#
DISCID=490db418
DTITLE=Jackie Wilson - He's So Fine - Lonely Teardrops
DYEAR=1998
DGENRE=R&B
TTITLE0=Etcetera
TTITLE1=To Be Loved
TTITLE2=Come Back To Me
TTITLE3=It I Can't Have You
TTITLE4=As Long As I Live
TTITLE5=Reet Petite
TTITLE6=It's Too Bad We Had To Say Goodbye
TTITLE7=Why Can't You Be Mine
TTITLE8=I'm Wanderin'
TTITLE9=Right Now!
TTITLE10=Danny Boy
TTITLE11=It's So Fine
TTITLE12=Lonely Teardrops
TTITLE13=Each Time (I Love You More)
TTITLE14=That's Why (I Love You So)
TTITLE15=In The Blue Of The Evening
TTITLE16=The Joke (Is Not On Me)
TTITLE17=Someone To Need Me (As I Need You)
TTITLE18=You Better Know It
TTITLE19=By The Light Of The Silvery Moon
TTITLE20=Singing A Song
TTITLE21=Love Is All
TTITLE22=We Have Love
TTITLE23=Hush-A-Bye
EXTD=
EXTT0=
EXTT1=
EXTT2=
EXTT3=
EXTT4=
EXTT5=
EXTT6=
EXTT7=
EXTT8=
EXTT9=
EXTT10=
EXTT11=
EXTT12=
EXTT13=
EXTT14=
EXTT15=
EXTT16=
EXTT17=
EXTT18=
EXTT19=
EXTT20=
EXTT21=
EXTT22=
EXTT23=
PLAYORDER=
